<svg width="529.4884" height="178.3808" viewBox="0 0 529.4884 178.3808" xmlns="http://www.w3.org/2000/svg" xmlns:xlink="http://www.w3.org/1999/xlink"><g fill="none" fill-rule="nonzero" stroke="none" stroke-width="none" stroke-linecap="butt" stroke-linejoin="miter" stroke-miterlimit="10" stroke-dasharray="" stroke-dashoffset="0" font-family="none" font-weight="none" font-size="none" text-anchor="none" style="mix-blend-mode: normal"><g id="Layer_1"><polygon points="323.5784,51.858 347.3219,51.858 292.5174,149.0808 344.1174,178.3808 415.4505,51.8183 432.814,51.8165 415.4485,0" fill="#0dca95" stroke="none" stroke-width="1"></polygon><g fill="#e7e7ff" stroke="none" stroke-width="1"><path d="M304.2016,68.3523c-1.7324,-4.7279 -6.2321,-7.8715 -11.2674,-7.8715h-23.2168h-19.4h-11.5h-0.6l0.2,0.7l13.2,36l13.2,36l13.6216,37.3149c1.7285,4.735 6.2318,7.8851 11.2724,7.8851h54.806z"></path></g><g fill="#ff207b" stroke="none" stroke-width="1"><polygon points="264.8174,133.1808 251.6174,97.1808 238.1174,60.4808 185.4174,150.8808 210.9174,165.8808 231.8174,178.3808 238.1174,178.3808"></polygon></g><g fill="#e7e7ff" stroke="none" stroke-width="1"><path d="M196.7016,68.3523c-1.7324,-4.7279 -6.2321,-7.8715 -11.2674,-7.8715h-23.3168h-31.5l40.2194,110.0201c1.73,4.7323 6.2319,7.8799 11.2705,7.8799h54.9101z"></path></g><g fill="#3183ff" stroke="#e7e7ff" stroke-width="10"><path d="M492.1174,79.1808"></path></g><g fill="#000000" stroke="none" stroke-width="1" opacity="0.18"><polygon points="238.1174,60.4808 264.8174,133.1808 260.6174,140.1808 233.4174,68.5808"></polygon></g><g fill="#000000" stroke="none" stroke-width="1" opacity="0.18"><polygon points="342.314,60.4808 368.5897,134.6522 364.5656,141.8426 337.8861,68.4457" data-paper-data="{&quot;rotation&quot;:-19.61249}"></polygon></g><path d="M485.9326,178.2808c-5.0923,0 -9.63,-3.214 -11.3199,-8.0176l-38.6215,-109.7824h43.5558c5.0923,0 9.63,3.214 11.3199,8.0176l38.6215,109.7824z" fill="#e7e7ff" stroke="none" stroke-width="1"></path><path d="M86.6047,178.2808c-5.0566,0 -9.5706,-3.1698 -11.2873,-7.9261l-39.6569,-109.8739h48.0246l42.5177,117.8z" fill="#e7e7ff" stroke="none" stroke-width="1"></path><path d="M438.8659,132.3308c-5.1023,0 -9.6466,-3.2264 -11.3289,-8.0433l-8.367,-23.9567h65.591v32z" fill="#e7e7ff" stroke="none" stroke-width="1"></path><path d="M22.706,101.4808c-5.1305,0 -9.6934,-3.2616 -11.354,-8.1159l-11.352,-33.1841h100.7516c5.162,0 9.7455,3.3011 11.3814,8.197l11.0611,33.103z" fill="#e7e7ff" stroke="none" stroke-width="1"></path></g><path d="M392.4376,178.2808c-5.0923,0 -9.63,-3.214 -11.3199,-8.0176l-38.6215,-109.7824h43.5558c5.0923,0 9.63,3.214 11.3199,8.0176l38.6215,109.7824z" fill="#e7e7ff" stroke="none" stroke-width="1"></path></g></svg>